<svg xmlns="http://www.w3.org/2000/svg" width="5078" height="75">
    <path fillRule="evenodd" fill="#F9F8F3" d="M5077.978 66.551c.015-16.514.002-33.028.02-49.542 0-.43-.03-.819-.096-1.17v-2.882c0-.581.015-1.167-.173-1.733-.497-.891-1.375-1.168-2.281-1.355-1.386-.291-2.78-.56-4.202-.592-13.495-.312-26.945.145-40.351 1.9a190.505 190.505 0 0 1-23.656 1.608c-9.077.052-18.2-.581-27.214.719-2.431-.199-4.862-.41-7.291-.638-10.118-.944-20.198-2.312-30.323-3.123a1893.798 1893.798 0 0 0-39.86-2.745c-13.79-.814-27.589-1.449-41.378-2.292-10.728-.656-21.405-1.821-32.096-2.84-8.789-.835-17.612-1.062-26.409-1.726-2.53-.19-4.977.303-7.303 1.356-1.222.553-2.483.996-3.835 1.062-7.648.377-15.269 1.273-22.945 1.083-2.498-.059-5-.056-7.498.024-1.987.036-2.465-.008-2.935 1.024-.835 1.839-2.241 1.455-3.564 1.252-2.65-.406-5.261-.611-7.949-.225-6.104.884-12.281 1.004-18.426 1.306-3.441.167-6.929-.22-10.415-.759-4.06-.631-8.191-1.349-12.367-1.105-2.599.154-5.023 1.208-7.611 1.399-13.116.976-26.25 1.598-39.392 2.084-1.335.05-2.674.039-3.952.484-1.883.652-3.762.528-5.668.111a69.073 69.073 0 0 0-15.373-1.616c-12.242.102-24.516.452-36.682-1.178-13.647-1.827-27.322-2.547-41.076-2.359-3.527.048-6.938 1.273-10.428.957-6.98-.628-13.956-.514-20.945-.43-6.412.078-12.837-.238-19.144 1.337-.969.241-1.992.128-2.987.198-4.22.304-8.507.223-12.464 2.111-.63.299-1.312.179-1.971.091-1.658-.221-3.325-.226-4.991-.2-12.404.21-24.777 1.034-37.143 1.952-.508.037-1.016.08-1.524.118-4.969-.614-9.991-.397-15-.497-6.909-.135-13.801-.169-20.695.453-2.918.264-5.749-.868-8.68-.927-14.083-.279-28.098.37-42.081 2.232-10.747 1.434-21.594 1.481-32.427 1.267-5.476-.109-10.928.008-16.321.839a671.697 671.697 0 0 1-5.827-.578c-23.688-2.452-47.378-4.72-71.169-5.992-13.875-.742-27.755-1.461-41.626-2.31-10.812-.659-21.568-1.858-32.344-2.868-8.79-.823-17.612-1.068-26.411-1.699-2.451-.174-4.806.346-7.052 1.361-1.221.549-2.481.998-3.834 1.064-7.73.381-15.435 1.282-23.194 1.078a132.693 132.693 0 0 0-7.248.022c-1.003.028-2.33-.041-2.758.846-1 2.075-2.635 1.668-4.197 1.371-2.829-.538-5.606-.375-8.444-.025-5.866.723-11.786.928-17.684 1.168-2.86.114-5.787.079-8.697-.475-4.471-.846-9.012-1.361-13.581-1.387-2.698-.014-5.189 1.202-7.858 1.399-13.116.972-26.25 1.588-39.391 2.082-1.249.048-2.52-.03-3.711.403-2.133.774-4.24.559-6.397.101-4.655-.987-9.353-1.545-14.132-1.525-8.165.031-16.347.387-24.491-.116-13.536-.841-26.967-3.005-40.545-3.439-1.743-.055-3.467-.181-5.226-.117-6.236.224-12.471.847-18.679.956-6.539.112-13.129-.143-19.686-.368-9.387-.324-18.628.894-27.85 2.054-6.736.849-13.416 1.456-20.21 1.68-11.399.374-22.8.974-34.175 1.96-5.022-.475-10.066-.751-15.153-.577-6.556.226-13.147.48-19.686.367-6.207-.106-12.443-.73-18.679-.955-1.759-.061-3.483.065-5.226.12-13.578.432-27.009 2.591-40.545 3.429-8.144.505-16.326.15-24.491.116-3.535-.014-7.025.287-10.487.842-3.751-.312-7.498-.67-11.236-1.098-23.255-2.667-46.58-4.381-69.933-5.785-12.544-.752-25.099-1.286-37.646-1.993-10.815-.609-21.57-1.839-32.345-2.853-8.789-.827-17.611-1.073-26.411-1.705-2.446-.174-4.807.331-7.055 1.343-1.143.517-2.317.984-3.582 1.047-6.401.316-12.778 1.054-19.194 1.098-3.749.028-7.499-.027-11.248.028-1.17.016-2.606-.072-3.217.99-1.003 1.742-2.429 1.561-3.881 1.26-2.993-.62-5.937-.363-8.938-.008-5.704.673-11.456.9-17.187 1.131-3.447.138-6.93-.254-10.413-.771-3.981-.595-8.023-1.318-12.116-1.111-2.606.131-5.029 1.16-7.609 1.401-9.287.865-18.629.853-27.911 1.668-5.707.5-11.504-.242-17.135 1.275-1.051.281-2.169.183-3.227-.072-6.945-1.686-14.005-1.923-21.105-1.784-10.833.216-21.68.169-32.427-1.267-13.983-1.869-27.999-2.516-42.081-2.237-2.931.058-5.762 1.192-8.68.927-6.894-.624-13.786-.586-20.695-.452-6.575.128-13.173-.285-19.643 1.348-.805.204-1.658.135-2.489.185-4.391.271-8.837.199-12.958 2.145-.62.293-1.316.149-1.976.061-1.575-.214-3.158-.22-4.741-.196-12.489.192-24.944 1.032-37.394 1.954-.501.038-1.001.079-1.502.116-4.81-.595-9.669-.43-14.521-.49-6.989-.084-13.965-.198-20.945.428-3.49.315-6.901-.905-10.428-.952-13.753-.188-27.429.528-41.076 2.352-12.166 1.626-24.44 1.277-36.682 1.177a68.557 68.557 0 0 0-11.26.84 331.666 331.666 0 0 1-6.138-.584c-23.687-2.474-47.38-4.709-71.172-5.979-13.875-.741-27.754-1.46-41.626-2.307-10.729-.653-21.403-1.838-32.095-2.845-8.79-.827-17.612-1.062-26.41-1.719-2.533-.188-4.974.319-7.299 1.376-1.141.521-2.322.967-3.587 1.026-6.817.322-13.606 1.15-20.444 1.096-3.333-.028-6.666-.041-9.998.022-1.085.018-2.423-.072-3.01.886-1.138 1.858-2.718 1.652-4.356 1.317-2.742-.563-5.442-.341-8.195-.008-5.868.712-11.786.919-17.684 1.172-2.779.117-5.634.151-8.451-.439-4.303-.9-8.696-1.196-13.083-1.434-1.081-.06-2.175.008-3.228.292-6.663 1.793-13.537 1.705-20.331 2.133-10.116.639-20.279.531-30.346 1.96-.747.103-1.516.135-2.241-.046-10.835-2.695-21.876-1.753-32.85-1.816a190.328 190.328 0 0 1-23.656-1.611c-13.406-1.76-26.856-2.215-40.35-1.904-.59.013-1.174.068-2.655.147.319-.079-.265-.134-.854-.147-13.495-.311-26.945.144-40.351 1.904a190.315 190.315 0 0 1-23.656 1.611c-10.974.063-22.015-.879-32.85 1.816-.726.181-1.494.149-2.241.046-10.067-1.429-20.23-1.321-30.346-1.96-6.794-.428-13.668-.34-20.331-2.133-1.053-.284-2.147-.352-3.228-.292-4.386.238-8.78.534-13.083 1.434-2.817.59-5.672.556-8.451.439-5.898-.253-11.816-.46-17.685-1.172-2.752-.333-5.452-.555-8.194.008-1.638.335-3.218.541-4.356-1.317-.587-.958-1.925-.868-3.009-.886-3.333-.063-6.666-.05-9.999-.022-6.838.054-13.627-.774-20.443-1.096-1.267-.059-2.447-.505-3.588-1.026-2.324-1.057-4.766-1.564-7.299-1.376-8.798.657-17.62.892-26.41 1.719-10.692 1.007-21.366 2.192-32.095 2.845-13.871.847-27.751 1.566-41.626 2.307-23.792 1.27-47.485 3.505-71.172 5.979-2.044.215-4.09.407-6.138.584a68.557 68.557 0 0 0-11.26-.84c-12.242.1-24.516.449-36.682-1.177-13.647-1.824-27.322-2.54-41.076-2.352-3.527.047-6.938 1.267-10.428.952-6.98-.626-13.956-.512-20.945-.428-4.852.06-9.711-.105-14.521.49-.501-.037-1.002-.078-1.502-.116-12.45-.922-24.906-1.762-37.394-1.954-1.583-.024-3.166-.018-4.741.196-.66.088-1.356.232-1.976-.061-4.12-1.946-8.567-1.874-12.958-2.145-.831-.05-1.683.019-2.489-.185-6.47-1.633-13.068-1.22-19.643-1.348-6.909-.134-13.801-.172-20.695.452-2.918.265-5.749-.869-8.68-.927-14.083-.279-28.098.368-42.081 2.237-10.747 1.436-21.594 1.483-32.427 1.267-7.1-.139-14.16.098-21.105 1.784-1.058.255-2.176.353-3.227.072-5.631-1.517-11.428-.775-17.135-1.275-9.282-.815-18.624-.803-27.911-1.668-2.58-.241-5.003-1.27-7.609-1.401-4.094-.207-8.135.516-12.116 1.111-3.483.517-6.966.909-10.413.771-5.731-.231-11.483-.458-17.187-1.131-3.001-.355-5.945-.612-8.938.008-1.452.301-2.878.482-3.881-1.26-.611-1.062-2.047-.974-3.217-.99-3.749-.055-7.499 0-11.248-.028-6.416-.044-12.793-.782-19.194-1.098-1.265-.063-2.439-.53-3.582-1.047-2.248-1.012-4.608-1.517-7.055-1.343-8.8.632-17.622.878-26.411 1.705-10.775 1.014-21.53 2.244-32.345 2.853-12.547.707-25.102 1.241-37.646 1.993-23.353 1.404-46.678 3.118-69.933 5.785-3.739.428-7.485.786-11.236 1.098-3.462-.555-6.952-.856-10.487-.842-8.165.034-16.347.389-24.491-.116-13.536-.838-26.967-2.997-40.545-3.429-1.743-.055-3.467-.181-5.226-.12-6.236.225-12.471.849-18.679.955-6.539.113-13.129-.141-19.686-.367-5.087-.174-10.131.102-15.153.577-11.375-.986-22.776-1.586-34.175-1.96-6.794-.224-13.474-.831-20.21-1.68-9.222-1.16-18.463-2.378-27.85-2.054-6.556.225-13.147.48-19.686.368-6.208-.109-12.443-.732-18.679-.956-1.759-.064-3.483.062-5.226.117-13.578.434-27.009 2.598-40.545 3.439-8.144.503-16.326.147-24.491.116-4.779-.02-9.477.538-14.132 1.525-2.157.458-4.265.673-6.397-.101-1.191-.433-2.462-.355-3.712-.403-13.14-.494-26.274-1.11-39.39-2.082-2.669-.197-5.159-1.413-7.858-1.399-4.569.026-9.11.541-13.581 1.387-2.91.554-5.837.589-8.697.475-5.898-.24-11.818-.445-17.684-1.168-2.838-.35-5.615-.513-8.444.025-1.562.297-3.197.704-4.198-1.371-.427-.887-1.754-.818-2.757-.846-2.416-.07-4.834-.084-7.248-.022-7.759.204-15.464-.697-23.194-1.078-1.353-.066-2.613-.515-3.834-1.064-2.246-1.015-4.602-1.535-7.052-1.361-8.799.631-17.621.876-26.411 1.699-10.775 1.01-21.532 2.209-32.344 2.868-13.871.849-27.751 1.568-41.625 2.31-23.792 1.272-47.482 3.54-71.17 5.992-1.942.202-3.884.393-5.827.578-5.393-.831-10.845-.948-16.321-.839-10.833.214-21.68.167-32.427-1.267-13.983-1.862-27.999-2.511-42.081-2.232-2.931.059-5.762 1.191-8.68.927-6.894-.622-13.786-.588-20.695-.453-5.009.1-10.031-.117-15 .497-.508-.038-1.016-.081-1.524-.118-12.366-.918-24.739-1.742-37.143-1.952-1.666-.026-3.333-.021-4.991.2-.659.088-1.341.208-1.971-.091-3.957-1.888-8.244-1.807-12.464-2.111-.995-.07-2.018.043-2.987-.198-6.307-1.575-12.732-1.259-19.144-1.337-6.989-.084-13.965-.198-20.945.43-3.49.316-6.901-.909-10.428-.957-13.754-.188-27.429.532-41.077 2.359-12.165 1.63-24.439 1.28-36.681 1.178a69.073 69.073 0 0 0-15.373 1.616c-1.906.417-3.786.541-5.668-.111-1.278-.445-2.617-.434-3.952-.484-13.142-.486-26.276-1.108-39.392-2.084-2.588-.191-5.012-1.245-7.611-1.399-4.177-.244-8.307.474-12.367 1.105-3.486.539-6.974.926-10.415.759-6.145-.302-12.322-.422-18.426-1.306-2.689-.386-5.299-.181-7.948.225-1.324.203-2.73.587-3.565-1.252-.47-1.032-1.848-.988-2.935-1.024-2.498-.08-5-.083-7.498-.024-7.676.19-15.297-.706-22.945-1.083-1.352-.066-2.613-.509-3.835-1.062C280.31.443 277.862-.05 275.332.14c-8.797.664-17.62.891-26.41 1.726-10.691 1.019-21.367 2.184-32.095 2.84-13.789.843-27.588 1.478-41.378 2.292a1893.24 1893.24 0 0 0-39.859 2.745c-10.126.811-20.207 2.179-30.324 3.123-2.429.228-4.86.439-7.291.638-9.014-1.3-18.137-.667-27.214-.719a190.518 190.518 0 0 1-23.656-1.608c-13.406-1.755-26.856-2.212-40.35-1.9-1.423.032-2.817.301-4.203.592-.906.187-1.784.464-2.281 1.355-.188.566-.173 1.152-.173 1.733v2.882c-.066.351-.096.74-.096 1.17.018 16.514.004 33.028.02 49.542.001.416.008.831.076 1.234v3.93c0 .825-.098 1.683.493 2.391h5076.817c.592-.708.494-1.566.494-2.391v-3.93c.068-.403.075-.818.076-1.234z"/>
</svg>
