<svg xmlns="http://www.w3.org/2000/svg" width="5078" height="74">
    <path fillRule="evenodd" fill="#141423" d="M5077.978 66.445c.015-16.514.002-33.027.02-49.54 0-.429-.03-.818-.096-1.17v-2.88c0-.583.015-1.169-.173-1.733-.497-.892-1.375-1.169-2.281-1.357-1.386-.289-2.78-.558-4.202-.591-13.495-.311-26.945.145-40.351 1.899a190.506 190.506 0 0 1-23.656 1.609c-9.077.053-18.2-.58-27.214.718a614.316 614.316 0 0 1-7.291-.636c-10.118-.946-20.198-2.314-30.323-3.125a1893.798 1893.798 0 0 0-39.86-2.745c-13.79-.812-27.589-1.449-41.378-2.292-10.728-.655-21.405-1.82-32.096-2.838-8.789-.835-17.612-1.062-26.409-1.726-2.53-.191-4.977.304-7.303 1.356-1.222.551-2.483.994-3.835 1.062-7.648.376-15.269 1.271-22.945 1.083-2.498-.06-5-.056-7.498.025-1.987.033-2.465-.011-2.935 1.023-.835 1.838-2.241 1.455-3.564 1.25-2.65-.405-5.261-.611-7.949-.222-6.104.88-12.281 1.002-18.426 1.303-3.441.168-6.929-.218-10.415-.759-4.06-.631-8.191-1.348-12.367-1.103-2.599.152-5.023 1.207-7.611 1.399-13.116.974-26.25 1.598-39.392 2.083-1.335.05-2.674.038-3.952.483-1.883.654-3.762.528-5.668.111a69.071 69.071 0 0 0-15.373-1.614c-12.242.099-24.516.451-36.682-1.178-13.647-1.827-27.322-2.547-41.076-2.359-3.527.047-6.938 1.271-10.428.956-6.98-.627-13.956-.515-20.945-.43-6.412.078-12.837-.238-19.144 1.336-.969.243-1.992.13-2.987.201-4.22.303-8.507.221-12.464 2.109-.63.301-1.312.178-1.971.091-1.658-.221-3.325-.227-4.991-.2-12.404.211-24.777 1.033-37.143 1.952-.508.037-1.016.079-1.524.118-4.969-.613-9.991-.399-15-.496-6.909-.134-13.801-.172-20.695.451-2.918.265-5.749-.868-8.68-.926-14.083-.278-28.098.369-42.081 2.233-10.747 1.432-21.594 1.48-32.427 1.265-5.476-.108-10.928.007-16.321.84a671.697 671.697 0 0 1-5.827-.578c-23.688-2.453-47.378-4.719-71.169-5.993-13.875-.742-27.755-1.461-41.626-2.308-10.812-.66-21.568-1.858-32.344-2.867-8.79-.824-17.612-1.07-26.411-1.7-2.451-.175-4.806.347-7.052 1.36-1.221.55-2.481.998-3.834 1.064-7.73.38-15.435 1.282-23.194 1.08a133.705 133.705 0 0 0-7.248.02c-1.003.029-2.33-.039-2.758.847-1 2.074-2.635 1.668-4.197 1.369-2.829-.537-5.606-.375-8.444-.024-5.866.725-11.786.927-17.684 1.167-2.86.116-5.787.08-8.697-.472-4.471-.848-9.012-1.364-13.581-1.389-2.698-.013-5.189 1.202-7.858 1.4-13.116.971-26.25 1.586-39.391 2.082-1.249.047-2.52-.032-3.711.402-2.133.773-4.24.56-6.397.1-4.655-.987-9.353-1.544-14.132-1.525-8.165.033-16.347.389-24.491-.115-13.536-.842-26.967-3.005-40.545-3.439-1.743-.054-3.467-.181-5.226-.117-6.236.222-12.471.849-18.679.956-6.539.114-13.129-.142-19.686-.369-9.387-.323-18.628.896-27.85 2.055-6.736.848-13.416 1.456-20.21 1.68-11.399.374-22.8.975-34.175 1.959-5.022-.473-10.066-.752-15.153-.576-6.556.225-13.147.48-19.686.367-6.207-.108-12.443-.73-18.679-.954-1.759-.063-3.483.062-5.226.118-13.578.433-27.009 2.593-40.545 3.429-8.144.505-16.326.148-24.491.116-3.535-.014-7.025.287-10.487.844-3.751-.313-7.498-.67-11.236-1.099-23.255-2.666-46.58-4.382-69.933-5.785-12.544-.752-25.099-1.285-37.646-1.992-10.815-.609-21.57-1.839-32.345-2.853-8.789-.828-17.611-1.073-26.411-1.704-2.446-.174-4.807.329-7.055 1.342-1.143.515-2.317.985-3.582 1.047-6.401.315-12.778 1.053-19.194 1.098-3.749.027-7.499-.027-11.248.027-1.17.017-2.606-.072-3.217.989-1.003 1.744-2.429 1.562-3.881 1.261-2.993-.62-5.937-.365-8.938-.009-5.704.675-11.456.901-17.187 1.131-3.447.139-6.93-.253-10.413-.772-3.981-.592-8.023-1.315-12.116-1.11-2.606.13-5.029 1.161-7.609 1.401-9.287.866-18.629.853-27.911 1.669-5.707.5-11.504-.243-17.135 1.273-1.051.284-2.169.185-3.227-.071-6.945-1.685-14.005-1.922-21.105-1.782-10.833.215-21.68.168-32.427-1.268-13.983-1.87-27.999-2.518-42.081-2.239-2.931.059-5.762 1.195-8.68.93-6.894-.624-13.786-.589-20.695-.452-6.575.127-13.173-.286-19.643 1.346-.805.206-1.658.136-2.489.188-4.391.269-8.837.195-12.958 2.143-.62.293-1.316.149-1.976.061-1.575-.214-3.158-.22-4.741-.196-12.489.192-24.944 1.032-37.394 1.955l-1.502.115c-4.81-.595-9.669-.431-14.521-.49-6.989-.085-13.965-.198-20.945.43-3.49.312-6.901-.908-10.428-.955-13.753-.187-27.429.53-41.076 2.353-12.166 1.626-24.44 1.276-36.682 1.176a68.776 68.776 0 0 0-11.26.839 349.869 349.869 0 0 1-6.138-.581c-23.687-2.474-47.38-4.71-71.172-5.98-13.875-.741-27.754-1.462-41.626-2.307-10.729-.654-21.403-1.838-32.095-2.845-8.79-.828-17.612-1.061-26.41-1.717-2.533-.188-4.974.318-7.299 1.375-1.141.519-2.322.965-3.587 1.025-6.817.323-13.606 1.15-20.444 1.096-3.333-.026-6.666-.041-9.998.022-1.085.02-2.423-.072-3.01.886-1.138 1.858-2.718 1.652-4.356 1.317-2.742-.562-5.442-.342-8.195-.007-5.868.712-11.786.919-17.684 1.17-2.779.117-5.634.152-8.451-.438-4.303-.901-8.696-1.196-13.083-1.434-1.081-.06-2.175.008-3.228.293-6.663 1.792-13.537 1.703-20.331 2.132-10.116.639-20.279.531-30.346 1.958-.747.106-1.516.137-2.241-.044-10.835-2.694-21.876-1.754-32.85-1.817a189.563 189.563 0 0 1-23.656-1.612c-13.406-1.756-26.856-2.215-40.35-1.903-.59.013-1.174.069-2.655.148.319-.079-.265-.135-.854-.148-13.495-.312-26.945.147-40.351 1.903a189.55 189.55 0 0 1-23.656 1.612c-10.974.063-22.015-.877-32.85 1.817-.726.181-1.494.15-2.241.044-10.067-1.427-20.23-1.319-30.346-1.958-6.794-.429-13.668-.34-20.331-2.132-1.053-.285-2.147-.353-3.228-.293-4.386.238-8.78.533-13.083 1.434-2.817.59-5.672.555-8.451.438-5.898-.251-11.816-.458-17.685-1.17-2.752-.335-5.452-.555-8.194.007-1.638.335-3.218.541-4.356-1.317-.587-.958-1.925-.866-3.009-.886-3.333-.063-6.666-.048-9.999-.022-6.838.054-13.627-.773-20.443-1.096-1.267-.06-2.447-.506-3.588-1.025-2.324-1.057-4.766-1.563-7.299-1.375-8.798.656-17.62.889-26.41 1.717-10.692 1.007-21.366 2.191-32.095 2.845-13.871.845-27.751 1.566-41.626 2.307-23.792 1.27-47.485 3.506-71.172 5.98-2.044.213-4.09.404-6.138.581a68.776 68.776 0 0 0-11.26-.839c-12.242.1-24.516.45-36.682-1.176-13.647-1.823-27.322-2.54-41.076-2.353-3.527.047-6.938 1.267-10.428.955-6.98-.628-13.956-.515-20.945-.43-4.852.059-9.711-.105-14.521.49l-1.502-.115c-12.45-.923-24.906-1.763-37.394-1.955-1.583-.024-3.166-.018-4.741.196-.66.088-1.356.232-1.976-.061-4.12-1.948-8.567-1.874-12.958-2.143-.831-.052-1.683.018-2.489-.188-6.47-1.632-13.068-1.219-19.643-1.346-6.909-.137-13.801-.172-20.695.452-2.918.265-5.749-.871-8.68-.93-14.083-.279-28.098.369-42.081 2.239-10.747 1.436-21.594 1.483-32.427 1.268-7.1-.14-14.16.097-21.105 1.782-1.058.256-2.176.355-3.227.071-5.631-1.516-11.428-.773-17.135-1.273-9.282-.816-18.624-.803-27.911-1.669-2.58-.24-5.003-1.271-7.609-1.401-4.094-.205-8.135.518-12.116 1.11-3.483.519-6.966.911-10.413.772-5.731-.23-11.483-.456-17.187-1.131-3.001-.356-5.945-.611-8.938.009-1.452.301-2.878.483-3.881-1.261-.611-1.061-2.047-.972-3.217-.989-3.749-.054-7.499 0-11.248-.027-6.416-.045-12.793-.783-19.194-1.098-1.265-.062-2.439-.532-3.582-1.047-2.248-1.013-4.608-1.516-7.055-1.342-8.8.631-17.622.876-26.411 1.704-10.775 1.014-21.53 2.244-32.345 2.853-12.547.707-25.102 1.24-37.646 1.992-23.353 1.403-46.678 3.119-69.933 5.785-3.739.429-7.485.786-11.236 1.099-3.462-.557-6.952-.858-10.487-.844-8.165.032-16.347.389-24.491-.116-13.536-.836-26.967-2.996-40.545-3.429-1.743-.056-3.467-.181-5.226-.118-6.236.224-12.471.846-18.679.954-6.539.113-13.129-.142-19.686-.367-5.087-.176-10.131.103-15.153.576-11.375-.984-22.776-1.585-34.175-1.959-6.794-.224-13.474-.832-20.21-1.68-9.222-1.159-18.463-2.378-27.85-2.055-6.556.227-13.147.483-19.686.369-6.208-.107-12.443-.734-18.679-.956-1.759-.064-3.483.063-5.226.117-13.578.434-27.009 2.597-40.545 3.439-8.144.504-16.326.148-24.491.115-4.779-.019-9.477.538-14.132 1.525-2.157.46-4.265.673-6.397-.1-1.191-.434-2.462-.355-3.712-.402-13.14-.496-26.274-1.111-39.39-2.082-2.669-.198-5.159-1.413-7.858-1.4-4.569.025-9.11.541-13.581 1.389-2.91.552-5.837.588-8.697.472-5.898-.24-11.818-.442-17.684-1.167-2.838-.351-5.615-.513-8.444.024-1.562.299-3.197.705-4.198-1.369-.427-.886-1.754-.818-2.757-.847a133.705 133.705 0 0 0-7.248-.02c-7.759.202-15.464-.7-23.194-1.08-1.353-.066-2.613-.514-3.834-1.064-2.246-1.013-4.602-1.535-7.052-1.36-8.799.63-17.621.876-26.411 1.7-10.775 1.009-21.532 2.207-32.344 2.867-13.871.847-27.751 1.566-41.625 2.308-23.792 1.274-47.482 3.54-71.17 5.993-1.942.202-3.884.393-5.827.578-5.393-.833-10.845-.948-16.321-.84-10.833.215-21.68.167-32.427-1.265-13.983-1.864-27.999-2.511-42.081-2.233-2.931.058-5.762 1.191-8.68.926-6.894-.623-13.786-.585-20.695-.451-5.009.097-10.031-.117-15 .496-.508-.039-1.016-.081-1.524-.118-12.366-.919-24.739-1.741-37.143-1.952-1.666-.027-3.333-.021-4.991.2-.659.087-1.341.21-1.971-.091-3.957-1.888-8.244-1.806-12.464-2.109-.995-.071-2.018.042-2.987-.201-6.307-1.574-12.732-1.258-19.144-1.336-6.989-.085-13.965-.197-20.945.43-3.49.315-6.901-.909-10.428-.956-13.754-.188-27.429.532-41.077 2.359-12.165 1.629-24.439 1.277-36.681 1.178a69.071 69.071 0 0 0-15.373 1.614c-1.906.417-3.786.543-5.668-.111-1.278-.445-2.617-.433-3.952-.483-13.142-.485-26.276-1.109-39.392-2.083-2.588-.192-5.012-1.247-7.611-1.399-4.177-.245-8.307.472-12.367 1.103-3.486.541-6.974.927-10.415.759-6.145-.301-12.322-.423-18.426-1.303-2.689-.389-5.299-.183-7.948.222-1.324.205-2.73.588-3.565-1.25-.47-1.034-1.848-.99-2.935-1.023-2.498-.081-5-.085-7.498-.025-7.676.188-15.297-.707-22.945-1.083-1.352-.068-2.613-.511-3.835-1.062-2.325-1.052-4.773-1.547-7.303-1.356-8.797.664-17.62.891-26.41 1.726-10.691 1.018-21.367 2.183-32.095 2.838-13.789.843-27.588 1.48-41.378 2.292a1893.24 1893.24 0 0 0-39.859 2.745c-10.126.811-20.207 2.179-30.324 3.125-2.429.227-4.86.438-7.291.636-9.014-1.298-18.137-.665-27.214-.718a190.519 190.519 0 0 1-23.656-1.609c-13.406-1.754-26.856-2.21-40.35-1.899-1.423.033-2.817.302-4.203.591-.906.188-1.784.465-2.281 1.357-.188.564-.173 1.15-.173 1.733v2.88a6.374 6.374 0 0 0-.096 1.17c.018 16.513.004 33.026.02 49.54.001.416.008.832.076 1.232v3.932c0 .827-.098 1.683.493 1.491h5076.817c.592.192.494-.664.494-1.491v-3.932c.068-.4.075-.816.076-1.232z"/>
</svg>
